<svg width="658" height="195" viewBox="0 0 658 195" fill="none" xmlns="http://www.w3.org/2000/svg">
<path d="M27.176 1.61888L81.6185 1.54713C92.2553 1.54438 107.118 1.07263 117.251 1.99488C138.805 4.01338 158.974 13.5041 174.268 28.8246C193.422 48.1756 204.086 74.3546 203.909 101.582C203.789 126.955 194.134 152.952 175.692 170.513C173.689 172.42 168.87 176.776 166.511 178.068C164.782 176.091 142.978 169.99 139.163 169.26C134.491 168.367 128.513 167.048 123.675 166.185C121.213 165.746 118.557 166.604 115.96 165.418C127.576 163.626 137.185 160.023 146.576 152.796C165.75 138.04 173.84 112.818 170.081 89.1986C167.272 71.4519 157.516 55.5529 142.965 45.0119C124.805 31.9149 110.565 33.0899 89.7625 33.0749C79.584 33.0189 69.4055 33.0379 59.2273 33.1321L59.169 102.031L59.1603 154.88C49.6808 154.659 36.4798 152.009 27.1145 156.295C27.232 146.122 27.1095 135.816 27.131 125.626L27.1598 39.7026C27.1638 27.1149 26.953 14.1574 27.176 1.61888Z" fill="white"/>
<path d="M103.522 97.2954C115.771 95.6488 127.026 104.268 128.629 116.522C130.232 128.776 121.572 140.001 109.312 141.56C97.114 143.111 85.9578 134.505 84.3631 122.312C82.7685 110.119 91.3356 98.9339 103.522 97.2954ZM120.565 130.024C118.766 129.937 116.02 129.717 114.318 129.959C110.936 131.304 110.605 138.669 116.671 134.752C118.665 133.085 119.295 132.306 120.565 130.024ZM97.0808 104.095C93.9512 105.934 92.4814 107.834 90.8885 111.092C92.2251 111.971 92.9627 112.461 93.9041 113.774L94.2312 113.714C96.6387 110.123 97.8435 109.401 100.823 106.425C99.8038 105.506 98.4766 104.098 97.0808 104.095Z" fill="white"/>
<path d="M102.58 84.3204C121.783 82.2229 139.042 96.1104 141.103 115.317C143.165 134.524 129.246 151.757 110.035 153.782C90.8755 155.802 73.6975 141.927 71.6415 122.772C69.586 103.616 83.4284 86.4124 102.58 84.3204ZM106.099 92.0616C91.1058 92.1916 79.077 104.491 79.2802 119.483C79.4837 134.476 91.8419 146.445 106.834 146.168C121.722 145.893 133.589 133.639 133.388 118.75C133.186 103.861 120.99 91.9323 106.099 92.0616Z" fill="white"/>
<path d="M105.605 113.607C108.698 113.062 111.657 115.096 112.256 118.179C112.855 121.262 110.872 124.255 107.8 124.907C105.765 125.339 103.656 124.639 102.282 123.077C100.909 121.515 100.485 119.333 101.174 117.37C101.863 115.407 103.557 113.969 105.605 113.607Z" fill="#D4D4D4"/>
<path d="M18.6463 165.912L77.418 165.905C89.314 165.908 104.368 166.291 115.96 165.418C118.557 166.604 121.213 165.746 123.675 166.185C128.512 167.048 134.49 168.367 139.163 169.26C142.978 169.99 164.782 176.091 166.51 178.068C166.486 178.095 166.461 178.121 166.436 178.148C156.867 185.118 143.271 190.108 131.786 191.996C123.711 193.323 115.411 193.212 107.599 193.224L81.134 193.205L27.2465 193.263C18.1808 193.241 9.053 193.389 0 193.12C1.9705 191.691 4.05575 190.378 5.88025 188.773C12.6718 182.795 17.8983 175.061 18.6463 165.912Z" fill="#D4D4D4"/>
<path d="M174.587 184.057C177.525 184.752 186.384 184.855 189.573 184.938C199.014 185.216 208.459 185.381 217.904 185.435C220.166 187.367 221.029 189.345 222.304 191.941L210.801 191.891L162.035 191.897C168.109 189.102 169.393 188.108 174.587 184.057Z" fill="#D4D4D4"/>
<path d="M277.688 139.424V79.0561H301.888C307.989 79.0561 313.211 80.1414 317.552 82.3121C321.893 84.4827 325.237 87.7974 327.584 92.2561C329.931 96.6561 331.104 102.317 331.104 109.24C331.104 116.104 329.931 121.765 327.584 126.224C325.237 130.683 321.893 133.997 317.552 136.168C313.211 138.339 307.989 139.424 301.888 139.424H277.688ZM289.128 129.656H301.888C304.704 129.656 307.197 129.245 309.368 128.424C311.539 127.603 313.357 126.4 314.824 124.816C316.291 123.173 317.405 121.149 318.168 118.744C318.931 116.28 319.312 113.435 319.312 110.208V108.36C319.312 105.075 318.931 102.229 318.168 99.8241C317.405 97.3601 316.291 95.3361 314.824 93.7521C313.357 92.1094 311.539 90.8774 309.368 90.0561C307.197 89.2347 304.704 88.8241 301.888 88.8241H289.128V129.656ZM345.231 139.424V79.0561H392.311V88.8241H356.671V103.696H388.439V113.464H356.671V129.656H392.839V139.424H345.231ZM407.876 139.424V79.0561H418.788L444.572 114.696C444.866 115.048 445.218 115.547 445.628 116.192C446.039 116.779 446.42 117.365 446.772 117.952C447.124 118.539 447.359 119.008 447.476 119.36H447.916C447.916 118.539 447.916 117.747 447.916 116.984C447.916 116.221 447.916 115.459 447.916 114.696V79.0561H458.916V139.424H448.092L422.22 103.52C421.751 102.816 421.194 101.965 420.548 100.968C419.962 99.9121 419.551 99.1787 419.316 98.7681H418.876C418.876 99.5307 418.876 100.323 418.876 101.144C418.876 101.907 418.876 102.699 418.876 103.52V139.424H407.876ZM492.042 139.424L470.042 79.0561H482.45L496.794 120.592C497.028 121.179 497.263 121.853 497.498 122.616C497.732 123.379 497.967 124.112 498.202 124.816C498.436 125.461 498.642 126.048 498.818 126.576H499.258C499.434 126.107 499.61 125.549 499.786 124.904C500.02 124.259 500.255 123.584 500.49 122.88C500.724 122.117 500.959 121.384 501.194 120.68L515.45 79.0561H527.33L505.33 139.424H492.042ZM538.409 139.424V79.0561H585.489V88.8241H549.849V103.696H581.617V113.464H549.849V129.656H586.017V139.424H538.409ZM601.054 139.424V79.0561H632.822C637.28 79.0561 640.976 79.8187 643.91 81.3441C646.843 82.8694 649.043 85.0401 650.51 87.8561C651.976 90.6721 652.71 93.9867 652.71 97.8001C652.71 101.731 651.83 105.221 650.07 108.272C648.31 111.264 645.728 113.523 642.326 115.048L654.822 139.424H642.326L631.238 116.984H612.494V139.424H601.054ZM612.494 107.392H631.942C634.875 107.392 637.134 106.541 638.718 104.84C640.302 103.139 641.094 100.792 641.094 97.8001C641.094 95.8641 640.742 94.2507 640.038 92.9601C639.334 91.6107 638.307 90.5841 636.958 89.8801C635.608 89.1761 633.936 88.8241 631.942 88.8241H612.494V107.392Z" fill="white"/>
<path d="M300.216 62.4801C296.872 62.4801 293.675 62.1281 290.624 61.4241C287.573 60.6614 284.875 59.5174 282.528 57.9921C280.181 56.4081 278.333 54.4721 276.984 52.1841C275.635 49.8374 274.96 47.0801 274.96 43.9121C274.96 43.5601 274.96 43.2081 274.96 42.8561C275.019 42.5041 275.048 42.2401 275.048 42.0641H286.576C286.576 42.1814 286.547 42.4161 286.488 42.7681C286.488 43.0614 286.488 43.3254 286.488 43.5601C286.488 45.4961 287.045 47.1681 288.16 48.5761C289.275 49.9254 290.888 50.9814 293 51.7441C295.112 52.4481 297.605 52.8001 300.48 52.8001C302.416 52.8001 304.117 52.6827 305.584 52.4481C307.109 52.2134 308.4 51.8907 309.456 51.4801C310.571 51.0107 311.48 50.4827 312.184 49.8961C312.888 49.2507 313.387 48.5467 313.68 47.7841C314.032 47.0214 314.208 46.2001 314.208 45.3201C314.208 43.6187 313.68 42.2107 312.624 41.0961C311.568 39.9814 310.131 39.0427 308.312 38.2801C306.552 37.5174 304.528 36.8427 302.24 36.2561C300.011 35.6107 297.693 34.9654 295.288 34.3201C292.941 33.6747 290.624 32.9121 288.336 32.0321C286.107 31.0934 284.083 29.9787 282.264 28.6881C280.504 27.3974 279.096 25.7841 278.04 23.8481C276.984 21.8534 276.456 19.4774 276.456 16.7201C276.456 13.9041 277.043 11.4401 278.216 9.32807C279.448 7.21607 281.149 5.4854 283.32 4.13607C285.549 2.72807 288.131 1.7014 291.064 1.05607C293.997 0.35207 297.195 7.10487e-05 300.656 7.10487e-05C303.883 7.10487e-05 306.904 0.35207 309.72 1.05607C312.595 1.7014 315.117 2.7574 317.288 4.22407C319.459 5.63207 321.16 7.45074 322.392 9.68007C323.624 11.8507 324.24 14.4614 324.24 17.5121V18.5681H312.888V17.6881C312.888 15.9867 312.36 14.5494 311.304 13.3761C310.307 12.2027 308.869 11.2934 306.992 10.6481C305.173 10.0027 303.032 9.68007 300.568 9.68007C297.928 9.68007 295.669 9.94407 293.792 10.4721C291.915 10.9414 290.477 11.6747 289.48 12.6721C288.483 13.6107 287.984 14.7841 287.984 16.1921C287.984 17.6587 288.512 18.8907 289.568 19.8881C290.624 20.8854 292.032 21.7361 293.792 22.4401C295.611 23.1441 297.635 23.7894 299.864 24.3761C302.152 24.9627 304.469 25.6081 306.816 26.3121C309.221 26.9574 311.539 27.7201 313.768 28.6001C316.056 29.4801 318.08 30.5947 319.84 31.9441C321.659 33.2347 323.096 34.8481 324.152 36.7841C325.208 38.7201 325.736 41.0374 325.736 43.7361C325.736 48.2534 324.621 51.8907 322.392 54.6481C320.221 57.4054 317.2 59.4001 313.328 60.6321C309.515 61.8641 305.144 62.4801 300.216 62.4801ZM367.623 62.4801C361.346 62.4801 355.919 61.3654 351.343 59.1361C346.767 56.8481 343.247 53.3867 340.783 48.7521C338.378 44.1174 337.175 38.2801 337.175 31.2401C337.175 24.1414 338.378 18.3041 340.783 13.7281C343.247 9.0934 346.767 5.6614 351.343 3.43207C355.919 1.14407 361.346 7.10487e-05 367.623 7.10487e-05C373.959 7.10487e-05 379.386 1.14407 383.903 3.43207C388.479 5.6614 391.97 9.0934 394.375 13.7281C396.839 18.3041 398.071 24.1414 398.071 31.2401C398.071 38.2801 396.839 44.1174 394.375 48.7521C391.97 53.3867 388.479 56.8481 383.903 59.1361C379.386 61.3654 373.959 62.4801 367.623 62.4801ZM367.623 52.8001C370.674 52.8001 373.343 52.3601 375.631 51.4801C377.978 50.6001 379.943 49.3094 381.527 47.6081C383.111 45.8481 384.314 43.7067 385.135 41.1841C385.957 38.6027 386.367 35.6401 386.367 32.2961V30.3601C386.367 26.9574 385.957 23.9654 385.135 21.3841C384.314 18.8027 383.111 16.6614 381.527 14.9601C379.943 13.2001 377.978 11.8801 375.631 11.0001C373.343 10.1201 370.674 9.68007 367.623 9.68007C364.573 9.68007 361.874 10.1201 359.527 11.0001C357.239 11.8801 355.303 13.2001 353.719 14.9601C352.135 16.6614 350.933 18.8027 350.111 21.3841C349.349 23.9654 348.967 26.9574 348.967 30.3601V32.2961C348.967 35.6401 349.349 38.6027 350.111 41.1841C350.933 43.7067 352.135 45.8481 353.719 47.6081C355.303 49.3094 357.239 50.6001 359.527 51.4801C361.874 52.3601 364.573 52.8001 367.623 52.8001ZM437.339 62.4801C432.059 62.4801 427.513 61.6294 423.699 59.9281C419.886 58.2267 416.953 55.6454 414.899 52.1841C412.905 48.6641 411.907 44.2934 411.907 39.0721V1.05607H423.347V38.7201C423.347 43.3547 424.55 46.8747 426.955 49.2801C429.419 51.6267 432.881 52.8001 437.339 52.8001C441.798 52.8001 445.259 51.6267 447.723 49.2801C450.246 46.8747 451.507 43.3547 451.507 38.7201V1.05607H462.947V39.0721C462.947 44.2934 461.921 48.6641 459.867 52.1841C457.814 55.6454 454.881 58.2267 451.067 59.9281C447.254 61.6294 442.678 62.4801 437.339 62.4801ZM494.243 61.4241V10.9121H474.971V1.05607H525.043V10.9121H505.683V61.4241H494.243ZM537.463 61.4241V1.05607H548.903V25.6081H577.063V1.05607H588.503V61.4241H577.063V35.4641H548.903V61.4241H537.463Z" fill="white"/>
<path d="M284.746 189.904C283.226 189.904 281.773 189.744 280.386 189.424C279 189.077 277.773 188.557 276.706 187.864C275.64 187.144 274.8 186.264 274.186 185.224C273.573 184.157 273.266 182.904 273.266 181.464C273.266 181.304 273.266 181.144 273.266 180.984C273.293 180.824 273.306 180.704 273.306 180.624H278.546C278.546 180.677 278.533 180.784 278.506 180.944C278.506 181.077 278.506 181.197 278.506 181.304C278.506 182.184 278.76 182.944 279.266 183.584C279.773 184.197 280.506 184.677 281.466 185.024C282.426 185.344 283.56 185.504 284.866 185.504C285.746 185.504 286.52 185.451 287.186 185.344C287.88 185.237 288.466 185.091 288.946 184.904C289.453 184.691 289.866 184.451 290.186 184.184C290.506 183.891 290.733 183.571 290.866 183.224C291.026 182.877 291.106 182.504 291.106 182.104C291.106 181.331 290.866 180.691 290.386 180.184C289.906 179.677 289.253 179.251 288.426 178.904C287.626 178.557 286.706 178.251 285.666 177.984C284.653 177.691 283.6 177.397 282.506 177.104C281.44 176.811 280.386 176.464 279.346 176.064C278.333 175.637 277.413 175.131 276.586 174.544C275.786 173.957 275.146 173.224 274.666 172.344C274.186 171.437 273.946 170.357 273.946 169.104C273.946 167.824 274.213 166.704 274.746 165.744C275.306 164.784 276.08 163.997 277.066 163.384C278.08 162.744 279.253 162.277 280.586 161.984C281.92 161.664 283.373 161.504 284.946 161.504C286.413 161.504 287.786 161.664 289.066 161.984C290.373 162.277 291.52 162.757 292.506 163.424C293.493 164.064 294.266 164.891 294.826 165.904C295.386 166.891 295.666 168.077 295.666 169.464V169.944H290.506V169.544C290.506 168.771 290.266 168.117 289.786 167.584C289.333 167.051 288.68 166.637 287.826 166.344C287 166.051 286.026 165.904 284.906 165.904C283.706 165.904 282.68 166.024 281.826 166.264C280.973 166.477 280.32 166.811 279.866 167.264C279.413 167.691 279.186 168.224 279.186 168.864C279.186 169.531 279.426 170.091 279.906 170.544C280.386 170.997 281.026 171.384 281.826 171.704C282.653 172.024 283.573 172.317 284.586 172.584C285.626 172.851 286.68 173.144 287.746 173.464C288.84 173.757 289.893 174.104 290.906 174.504C291.946 174.904 292.866 175.411 293.666 176.024C294.493 176.611 295.146 177.344 295.626 178.224C296.106 179.104 296.346 180.157 296.346 181.384C296.346 183.437 295.84 185.091 294.826 186.344C293.84 187.597 292.466 188.504 290.706 189.064C288.973 189.624 286.986 189.904 284.746 189.904ZM311.986 189.424V161.984H333.386V166.424H317.186V173.184H331.626V177.624H317.186V184.984H333.626V189.424H311.986ZM354.461 189.424L347.021 161.984H352.541L356.981 179.624C357.061 179.891 357.141 180.264 357.221 180.744C357.301 181.197 357.381 181.677 357.461 182.184C357.541 182.691 357.608 183.144 357.661 183.544H357.861C357.914 183.224 357.954 182.877 357.981 182.504C358.034 182.131 358.088 181.757 358.141 181.384C358.221 181.011 358.288 180.677 358.341 180.384C358.394 180.064 358.434 179.811 358.461 179.624L362.581 161.984H369.261L373.381 179.624C373.461 179.891 373.541 180.264 373.621 180.744C373.701 181.197 373.781 181.677 373.861 182.184C373.941 182.691 374.008 183.144 374.061 183.544H374.261C374.314 183.251 374.368 182.931 374.421 182.584C374.501 182.211 374.568 181.851 374.621 181.504C374.701 181.131 374.781 180.784 374.861 180.464C374.941 180.144 375.008 179.864 375.061 179.624L379.501 161.984H384.381L376.901 189.424H370.941L366.501 171.424C366.421 171.051 366.328 170.624 366.221 170.144C366.141 169.637 366.061 169.144 365.981 168.664C365.928 168.157 365.874 167.717 365.821 167.344H365.661C365.634 167.744 365.581 168.211 365.501 168.744C365.448 169.251 365.381 169.744 365.301 170.224C365.221 170.704 365.141 171.104 365.061 171.424L360.661 189.424H354.461ZM398.625 189.424V161.984H420.025V166.424H403.825V173.184H418.265V177.624H403.825V184.984H420.265V189.424H398.625ZM436.3 189.424V161.984H450.74C452.767 161.984 454.447 162.331 455.78 163.024C457.113 163.717 458.113 164.704 458.78 165.984C459.447 167.264 459.78 168.771 459.78 170.504C459.78 172.291 459.38 173.877 458.58 175.264C457.78 176.624 456.607 177.651 455.06 178.344L460.74 189.424H455.06L450.02 179.224H441.5V189.424H436.3ZM441.5 174.864H450.34C451.673 174.864 452.7 174.477 453.42 173.704C454.14 172.931 454.5 171.864 454.5 170.504C454.5 169.624 454.34 168.891 454.02 168.304C453.7 167.691 453.233 167.224 452.62 166.904C452.007 166.584 451.247 166.424 450.34 166.424H441.5V174.864ZM486.012 189.904C484.492 189.904 483.039 189.744 481.652 189.424C480.265 189.077 479.039 188.557 477.972 187.864C476.905 187.144 476.065 186.264 475.452 185.224C474.839 184.157 474.532 182.904 474.532 181.464C474.532 181.304 474.532 181.144 474.532 180.984C474.559 180.824 474.572 180.704 474.572 180.624H479.812C479.812 180.677 479.799 180.784 479.772 180.944C479.772 181.077 479.772 181.197 479.772 181.304C479.772 182.184 480.025 182.944 480.532 183.584C481.039 184.197 481.772 184.677 482.732 185.024C483.692 185.344 484.825 185.504 486.132 185.504C487.012 185.504 487.785 185.451 488.452 185.344C489.145 185.237 489.732 185.091 490.212 184.904C490.719 184.691 491.132 184.451 491.452 184.184C491.772 183.891 491.999 183.571 492.132 183.224C492.292 182.877 492.372 182.504 492.372 182.104C492.372 181.331 492.132 180.691 491.652 180.184C491.172 179.677 490.519 179.251 489.692 178.904C488.892 178.557 487.972 178.251 486.932 177.984C485.919 177.691 484.865 177.397 483.772 177.104C482.705 176.811 481.652 176.464 480.612 176.064C479.599 175.637 478.679 175.131 477.852 174.544C477.052 173.957 476.412 173.224 475.932 172.344C475.452 171.437 475.212 170.357 475.212 169.104C475.212 167.824 475.479 166.704 476.012 165.744C476.572 164.784 477.345 163.997 478.332 163.384C479.345 162.744 480.519 162.277 481.852 161.984C483.185 161.664 484.639 161.504 486.212 161.504C487.679 161.504 489.052 161.664 490.332 161.984C491.639 162.277 492.785 162.757 493.772 163.424C494.759 164.064 495.532 164.891 496.092 165.904C496.652 166.891 496.932 168.077 496.932 169.464V169.944H491.772V169.544C491.772 168.771 491.532 168.117 491.052 167.584C490.599 167.051 489.945 166.637 489.092 166.344C488.265 166.051 487.292 165.904 486.172 165.904C484.972 165.904 483.945 166.024 483.092 166.264C482.239 166.477 481.585 166.811 481.132 167.264C480.679 167.691 480.452 168.224 480.452 168.864C480.452 169.531 480.692 170.091 481.172 170.544C481.652 170.997 482.292 171.384 483.092 171.704C483.919 172.024 484.839 172.317 485.852 172.584C486.892 172.851 487.945 173.144 489.012 173.464C490.105 173.757 491.159 174.104 492.172 174.504C493.212 174.904 494.132 175.411 494.932 176.024C495.759 176.611 496.412 177.344 496.892 178.224C497.372 179.104 497.612 180.157 497.612 181.384C497.612 183.437 497.105 185.091 496.092 186.344C495.105 187.597 493.732 188.504 491.972 189.064C490.239 189.624 488.252 189.904 486.012 189.904ZM525.332 189.904C522.532 189.904 520.132 189.411 518.132 188.424C516.158 187.437 514.638 185.904 513.572 183.824C512.532 181.717 512.012 179.011 512.012 175.704C512.012 170.877 513.185 167.304 515.532 164.984C517.878 162.664 521.145 161.504 525.332 161.504C527.598 161.504 529.638 161.891 531.452 162.664C533.292 163.437 534.745 164.611 535.812 166.184C536.905 167.731 537.452 169.704 537.452 172.104H532.132C532.132 170.771 531.838 169.651 531.252 168.744C530.692 167.811 529.905 167.104 528.892 166.624C527.878 166.144 526.718 165.904 525.412 165.904C523.598 165.904 522.092 166.264 520.892 166.984C519.692 167.677 518.798 168.717 518.212 170.104C517.652 171.491 517.372 173.211 517.372 175.264V176.144C517.372 178.224 517.652 179.957 518.212 181.344C518.798 182.731 519.678 183.771 520.852 184.464C522.052 185.157 523.572 185.504 525.412 185.504C526.798 185.504 528.012 185.277 529.052 184.824C530.092 184.344 530.892 183.651 531.452 182.744C532.038 181.811 532.332 180.677 532.332 179.344H537.452C537.452 181.744 536.918 183.731 535.852 185.304C534.785 186.851 533.332 188.011 531.492 188.784C529.678 189.531 527.625 189.904 525.332 189.904ZM565.48 189.904C562.626 189.904 560.16 189.397 558.08 188.384C556 187.344 554.4 185.771 553.28 183.664C552.186 181.557 551.64 178.904 551.64 175.704C551.64 172.477 552.186 169.824 553.28 167.744C554.4 165.637 556 164.077 558.08 163.064C560.16 162.024 562.626 161.504 565.48 161.504C568.36 161.504 570.826 162.024 572.88 163.064C574.96 164.077 576.546 165.637 577.64 167.744C578.76 169.824 579.32 172.477 579.32 175.704C579.32 178.904 578.76 181.557 577.64 183.664C576.546 185.771 574.96 187.344 572.88 188.384C570.826 189.397 568.36 189.904 565.48 189.904ZM565.48 185.504C566.866 185.504 568.08 185.304 569.12 184.904C570.186 184.504 571.08 183.917 571.8 183.144C572.52 182.344 573.066 181.371 573.44 180.224C573.813 179.051 574 177.704 574 176.184V175.304C574 173.757 573.813 172.397 573.44 171.224C573.066 170.051 572.52 169.077 571.8 168.304C571.08 167.504 570.186 166.904 569.12 166.504C568.08 166.104 566.866 165.904 565.48 165.904C564.093 165.904 562.866 166.104 561.8 166.504C560.76 166.904 559.88 167.504 559.16 168.304C558.44 169.077 557.893 170.051 557.52 171.224C557.173 172.397 557 173.757 557 175.304V176.184C557 177.704 557.173 179.051 557.52 180.224C557.893 181.371 558.44 182.344 559.16 183.144C559.88 183.917 560.76 184.504 561.8 184.904C562.866 185.304 564.093 185.504 565.48 185.504ZM594.969 189.424V161.984H608.729C610.755 161.984 612.422 162.344 613.729 163.064C615.062 163.784 616.062 164.797 616.729 166.104C617.395 167.411 617.729 168.971 617.729 170.784C617.729 172.571 617.382 174.131 616.689 175.464C615.995 176.797 614.955 177.837 613.569 178.584C612.209 179.304 610.502 179.664 608.449 179.664H600.169V189.424H594.969ZM600.169 175.224H608.289C609.622 175.224 610.649 174.837 611.369 174.064C612.115 173.264 612.489 172.171 612.489 170.784C612.489 169.851 612.329 169.064 612.009 168.424C611.689 167.784 611.222 167.291 610.609 166.944C609.995 166.597 609.222 166.424 608.289 166.424H600.169V175.224ZM632.566 189.424V161.984H653.966V166.424H637.766V173.184H652.206V177.624H637.766V184.984H654.206V189.424H632.566Z" fill="#D4D4D4"/>
<line x1="247.966" y1="1.42407" x2="247.966" y2="193.424" stroke="#D4D4D4" stroke-width="3"/>
</svg>
